<?xml version="1.0" standalone="no"?>
<!DOCTYPE svg PUBLIC "-//W3C//DTD SVG 20010904//EN"
 "http://www.w3.org/TR/2001/REC-SVG-20010904/DTD/svg10.dtd">
<svg version="1.0" xmlns="http://www.w3.org/2000/svg"
 width="700.000000pt" height="700.000000pt" viewBox="0 0 700.000000 700.000000"
 preserveAspectRatio="xMidYMid meet">
<metadata>
Created by potrace 1.11, written by Peter Selinger 2001-2013
</metadata>
<g transform="translate(0.000000,700.000000) scale(0.100000,-0.100000)"
fill="#000000" stroke="none">
<path d="M5518 6985 c-913 -125 -2024 -729 -3085 -1677 -146 -131 -396 -374
-373 -362 8 4 96 69 195 144 1222 922 2333 1407 3135 1365 195 -10 246 -22
100 -24 -458 -5 -963 -179 -1646 -566 -827 -470 -1490 -969 -2109 -1589 -310
-310 -505 -535 -737 -846 -543 -730 -883 -1488 -958 -2131 -16 -135 -8 -457
14 -549 43 -187 109 -319 214 -431 153 -163 365 -265 633 -305 147 -21 450
-14 614 15 646 114 1321 420 2090 946 142 97 415 301 415 310 0 2 -111 -50
-247 -116 -1378 -669 -2296 -846 -2814 -542 -98 57 -217 178 -258 263 -10 20
-8 19 10 -5 39 -52 142 -145 199 -180 239 -145 571 -172 985 -80 237 53 564
174 838 311 236 118 608 341 969 581 1253 831 2193 1747 2755 2686 96 160 261
490 321 643 77 195 147 470 177 699 21 158 21 411 1 540 -81 503 -383 809
-884 896 -135 23 -400 25 -554 4z m135 -562 c-7 -2 -19 -2 -25 0 -7 3 -2 5 12
5 14 0 19 -2 13 -5z m-707 -1336 c102 -52 148 -141 146 -287 -2 -211 -99 -475
-295 -799 -585 -966 -1775 -1974 -2494 -2112 -89 -16 -237 -8 -293 18 -97 44
-149 127 -157 254 -45 648 1052 2021 2137 2676 185 112 406 211 560 252 110
29 115 30 235 27 96 -2 116 -6 161 -29z"/>
</g>
</svg>
